
<svg data-v-fde0c5aa="" xmlns="https://www.w3.org/2000/svg" viewBox="0 0 300 300" class="iconLeft"><!----><defs data-v-fde0c5aa=""><!----></defs><!----><defs data-v-fde0c5aa=""><linearGradient data-v-fde0c5aa="" gradientTransform="rotate(25)" id="3312071d-2297-4011-bc74-348f5b1df66d" x1="0%" y1="0%" x2="100%" y2="0%"><stop data-v-fde0c5aa="" offset="0%" stop-color="#0091FF" stop-opacity="1"></stop><stop data-v-fde0c5aa="" offset="100%" stop-color="#003D82" stop-opacity="1"></stop></linearGradient></defs><g data-v-fde0c5aa="" id="e29d0663-ab15-4b2b-a2bc-f0690226c956" fill="url(#3312071d-2297-4011-bc74-348f5b1df66d)" transform="matrix(4.17209830852273,0,0,4.17209830852273,111.22297545204401,114.34941864066167)"><path d="M7.08 13.33L1.57 13.33L1.57 13.33Q1.09 13.33 1.09 12.82L1.09 12.82L1.09 4.04L1.09 4.04Q1.09 3.53 1.57 3.53L1.57 3.53L2.68 3.53L2.68 3.53Q3.09 3.53 3.09 4.04L3.09 4.04L3.09 11.63L7.08 11.63L7.08 11.63Q7.59 11.63 7.59 12.08L7.59 12.08L7.59 12.89L7.59 12.89Q7.59 13.33 7.08 13.33L7.08 13.33ZM10.21 12.87L8.23 6.69L8.23 6.69Q8.06 6.15 8.46 6.15L8.46 6.15L9.68 6.15L9.68 6.15Q10.00 6.15 10.09 6.50L10.09 6.50L11.15 10.51L11.15 10.51Q11.24 10.84 11.30 11.17L11.30 11.17L11.30 11.17Q11.35 11.50 11.37 11.70L11.37 11.70L11.41 11.70L11.41 11.70Q11.42 11.50 11.48 11.17L11.48 11.17L11.48 11.17Q11.54 10.84 11.63 10.51L11.63 10.51L12.69 6.50L12.69 6.50Q12.78 6.15 13.10 6.15L13.10 6.15L14.32 6.15L14.32 6.15Q14.72 6.15 14.55 6.69L14.55 6.69L12.56 12.87L12.56 12.87Q12.42 13.33 12.07 13.33L12.07 13.33L10.71 13.33L10.71 13.33Q10.36 13.33 10.21 12.87L10.21 12.87ZM15.38 11.42L15.38 11.42L15.38 11.42Q15.38 10.05 16.69 9.43L16.69 9.43L16.69 9.43Q17.99 8.82 19.67 8.78L19.67 8.78L19.67 8.50L19.67 8.50Q19.67 7.88 19.35 7.62L19.35 7.62L19.35 7.62Q19.04 7.36 18.48 7.36L18.48 7.36L18.48 7.36Q18.08 7.36 17.78 7.47L17.78 7.47L17.78 7.47Q17.47 7.58 17.25 7.73L17.25 7.73L17.25 7.73Q17.03 7.88 16.85 8.03L16.85 8.03L16.85 8.03Q16.54 8.30 16.33 8.05L16.33 8.05L15.76 7.36L15.76 7.36Q15.55 7.10 15.87 6.82L15.87 6.82L15.87 6.82Q16.11 6.61 16.42 6.45L16.42 6.45L16.42 6.45Q16.74 6.30 17.27 6.16L17.27 6.16L17.27 6.16Q17.79 6.02 18.63 6.02L18.63 6.02L18.63 6.02Q20.06 6.02 20.82 6.67L20.82 6.67L20.82 6.67Q21.58 7.33 21.58 8.61L21.58 8.61L21.58 12.92L21.58 12.92Q21.58 13.33 21.17 13.33L21.17 13.33L20.05 13.33L20.05 13.33Q19.68 13.33 19.68 12.92L19.68 12.92L19.68 12.71L19.67 12.71L19.67 12.71Q19.26 13.10 18.70 13.29L18.70 13.29L18.70 13.29Q18.14 13.47 17.66 13.47L17.66 13.47L17.66 13.47Q16.54 13.47 15.96 12.92L15.96 12.92L15.96 12.92Q15.38 12.37 15.38 11.42ZM17.40 11.38L17.40 11.38L17.40 11.38Q17.40 11.61 17.50 11.79L17.50 11.79L17.50 11.79Q17.60 11.96 17.80 12.04L17.80 12.04L17.80 12.04Q18.01 12.13 18.26 12.13L18.26 12.13L18.26 12.13Q18.61 12.13 18.94 12.03L18.94 12.03L18.94 12.03Q19.26 11.94 19.67 11.58L19.67 11.58L19.67 10.10L19.67 10.10Q18.52 10.23 18.13 10.43L18.13 10.43L18.13 10.43Q17.74 10.64 17.57 10.86L17.57 10.86L17.57 10.86Q17.40 11.07 17.40 11.38ZM23.67 7.52L23.20 7.52L23.20 7.52Q22.80 7.52 22.80 7.18L22.80 7.18L22.80 6.49L22.80 6.49Q22.80 6.15 23.20 6.15L23.20 6.15L23.67 6.15L23.67 5.91L23.67 5.91Q23.67 5.61 23.81 5.35L23.81 5.35L24.34 4.43L24.34 4.43Q24.49 4.17 24.69 4.17L24.69 4.17L25.17 4.17L25.17 4.17Q25.58 4.17 25.58 4.58L25.58 4.58L25.58 6.15L26.69 6.15L26.69 6.15Q27.09 6.15 27.09 6.49L27.09 6.49L27.09 7.18L27.09 7.18Q27.09 7.52 26.69 7.52L26.69 7.52L25.58 7.52L25.58 10.91L25.58 10.91Q25.58 11.61 25.68 11.91L25.68 11.91L25.68 11.91Q25.78 12.22 26.20 12.22L26.20 12.22L26.20 12.22Q26.41 12.22 26.67 12.14L26.67 12.14L26.67 12.14Q26.94 12.07 27.09 12.00L27.09 12.00L27.09 12.00Q27.33 11.89 27.41 12.16L27.41 12.16L27.61 12.94L27.61 12.94Q27.67 13.17 27.43 13.28L27.43 13.28L27.43 13.28Q27.21 13.38 26.81 13.47L26.81 13.47L26.81 13.47Q26.42 13.56 26.02 13.56L26.02 13.56L26.02 13.56Q25.05 13.56 24.36 13.15L24.36 13.15L24.36 13.15Q23.67 12.75 23.67 11.49L23.67 11.49L23.67 7.52ZM28.51 9.74L28.51 9.74L28.51 9.74Q28.51 8.00 29.41 7.01L29.41 7.01L29.41 7.01Q30.31 6.02 32.09 6.02L32.09 6.02L32.09 6.02Q33.87 6.02 34.76 7.01L34.76 7.01L34.76 7.01Q35.66 8.00 35.66 9.74L35.66 9.74L35.66 9.74Q35.66 11.48 34.76 12.48L34.76 12.48L34.76 12.48Q33.87 13.47 32.09 13.47L32.09 13.47L32.09 13.47Q30.31 13.47 29.41 12.48L29.41 12.48L29.41 12.48Q28.51 11.48 28.51 9.74ZM30.54 9.74L30.54 9.74L30.54 9.74Q30.54 11.04 30.94 11.58L30.94 11.58L30.94 11.58Q31.34 12.13 32.09 12.13L32.09 12.13L32.09 12.13Q32.84 12.13 33.24 11.58L33.24 11.58L33.24 11.58Q33.64 11.04 33.64 9.74L33.64 9.74L33.64 9.74Q33.64 8.44 33.24 7.90L33.24 7.90L33.24 7.90Q32.84 7.36 32.09 7.36L32.09 7.36L32.09 7.36Q31.34 7.36 30.94 7.90L30.94 7.90L30.94 7.90Q30.54 8.44 30.54 9.74Z"></path></g><defs data-v-fde0c5aa=""><linearGradient data-v-fde0c5aa="" gradientTransform="rotate(25)" id="6097af4d-b72f-45ac-a553-7510a0d2245a" x1="0%" y1="0%" x2="100%" y2="0%"><stop data-v-fde0c5aa="" offset="0%" stop-color="#003D82" stop-opacity="1"></stop><stop data-v-fde0c5aa="" offset="100%" stop-color="#0091FF" stop-opacity="1"></stop></linearGradient></defs><g data-v-fde0c5aa="" id="5928fab0-e0ae-443b-a638-96df37de62e9" stroke="none" fill="url(#6097af4d-b72f-45ac-a553-7510a0d2245a)" transform="matrix(0.9807691148258331,0,0,0.9807691148258331,40.000847036791946,118.61538832557335)"><path d="M56.88 7.526c-.024-.045-.059-.082-.089-.122-.023-.031-.042-.066-.068-.093-.035-.036-.076-.063-.116-.094-.031-.024-.059-.054-.093-.074-.047-.028-.099-.045-.15-.065-.032-.013-.062-.032-.095-.041A1.004 1.004 0 0 0 56 7H8c-.092 0-.183.013-.269.037-.035.01-.066.029-.099.043-.05.02-.101.036-.147.064-.034.02-.063.05-.094.074-.039.03-.08.056-.114.092-.027.029-.046.064-.07.096-.03.04-.064.076-.088.12l-7 13a.998.998 0 0 0 .076 1.068l31 42 .006.005a.974.974 0 0 0 .398.305.98.98 0 0 0 .4.096c.056 0 .113-.005.171-.014.075-.013.14-.047.208-.076.03-.013.062-.018.091-.033a1 1 0 0 0 .315-.266c.006-.007.015-.01.021-.017l31-42a1 1 0 0 0 .076-1.068l-7.001-13zM8.107 9.911L15.091 20H2.674L8.107 9.911zM33 22h12.581L33 57.226V22zm.789-2l6.153-9.998L45.326 20H33.789zM32 19.092L25.789 9H38.21L32 19.092zM30.211 20H18.674l5.383-9.998L30.211 20zM31 22v35.227L18.419 22H31zm-14.705 0l12.482 34.949L2.981 22h13.314zm31.41 0h13.314L35.223 56.949 47.705 22zm1.204-2l6.985-10.089L61.326 20H48.909zm-1.802-.911L41.674 9h12.417l-6.984 10.089zM22.326 9l-5.433 10.089L9.909 9h12.417zM59 0h2v3h-2zM59 5h2v3h-2zM61 3h3v2h-3zM56 3h3v2h-3z"></path></g><!----></svg>